# xmcd
#
# Track frame offsets: 
#        150
#        14150
#        28072
#        41607
#        55410
#        69367
#        84280
#        97440
#        110717
#        124052
#        137065
#        151980
#        166030
#        180790
#        194442
#        207767
#        220985
#        234745
#        247825
#        261817
#        275962
#        290802
#        304952
#        318622
#        332540
#
# Disc length: 4617 seconds
#
# Revision: 3
# Processed by: cddbd v1.5.2PL0 Copyright (c) Steve Scherf et al.
# Submitted via: ExactAudioCopy v0.99pb4
#
DISCID=7c120719
DTITLE=Amédée Ardoin and Cleoma Falcon - Prends Donc Courage - Early Blac
DTITLE=k and White Cajun
DYEAR=1900
DGENRE=Ethnic
TTITLE0=Cleoma Falcon - Ma Meilleure Valse
TTITLE1=Cleoma Falcon - La Valse De Crowley
TTITLE2=Cleoma Falcon - C'est Un Peche De Dire Une Mentrie
TTITLE3=Cleoma Falcon - Lulu Revenue Dans La Village
TTITLE4=Cleoma Falcon - Mon Bon Vieux Mari
TTITLE5=Cleoma Falcon - La Valse De Marais Bouleur
TTITLE6=Cleoma Falcon - Prends Donc Courage
TTITLE7=Cleoma Falcon - J'ai Passe Devant Ta Porte
TTITLE8=Cleoma Falcon - Ils Ont Vole Mon Traineau
TTITLE9=Cleoma Falcon - C'est Si Triste
TTITLE10=Cleoma Falcon - Leve Tes Fenetres Haut
TTITLE11=Amédée Ardoin - La Valse A Abe
TTITLE12=Amédée Ardoin - Two Step D'Eunice
TTITLE13=Amédée Ardoin - Madame Etienne
TTITLE14=Amédée Ardoin - Quoi Faire
TTITLE15=Amédée Ardoin - Two Step De Maman
TTITLE16=Amédée Ardoin - Tante Aline
TTITLE17=Amédée Ardoin - La Valse A Austin Ardoin
TTITLE18=Amédée Ardoin - La Valse De Mon Vieux Village
TTITLE19=Amédée Ardoin - Le Midland Two Step
TTITLE20=Amédée Ardoin - Valse Brunette
TTITLE21=Amédée Ardoin - Two Step D'Ossun
TTITLE22=Amédée Ardoin - Valse De La Pointe D'Eglise
TTITLE23=Amédée Ardoin - Two Step De Jennings
TTITLE24=Amédée Ardoin - Les Blues De La Prison
EXTD=
EXTT0=
EXTT1=
EXTT2=
EXTT3=
EXTT4=
EXTT5=
EXTT6=
EXTT7=
EXTT8=
EXTT9=
EXTT10=
EXTT11=
EXTT12=
EXTT13=
EXTT14=
EXTT15=
EXTT16=
EXTT17=
EXTT18=
EXTT19=
EXTT20=
EXTT21=
EXTT22=
EXTT23=
EXTT24=
PLAYORDER=
